<?xml version="1.0" encoding="utf-8"?>
<!-- Generator: Adobe Illustrator 15.1.0, SVG Export Plug-In . SVG Version: 6.00 Build 0)  -->
<!DOCTYPE svg PUBLIC "-//W3C//DTD SVG 1.1//EN" "http://www.w3.org/Graphics/SVG/1.1/DTD/svg11.dtd">
<svg version="1.1" id="Layer_1" xmlns="http://www.w3.org/2000/svg" xmlns:xlink="http://www.w3.org/1999/xlink" x="0px" y="0px"
	 width="440px" height="55.333px" viewBox="0 0 440 55.333" enable-background="new 0 0 440 55.333" xml:space="preserve">
<g>
	<g>
		<g>
			<path fill="#A3A2A2" d="M223.915,33.71c0.014-0.129,0.021-0.265,0.021-0.394v2.188c-0.021-0.055-0.041-0.115-0.055-0.17
				c-0.062-0.21-0.115-0.42-0.15-0.638c0.076-0.23,0.131-0.476,0.15-0.721c0.02-0.089,0.033-0.17,0.033-0.259
				C223.915,33.717,223.915,33.717,223.915,33.71z"/>
			<path fill="#A3A2A2" d="M267.454,33.996v2.493c-0.008,0.015-0.014,0.027-0.027,0.048v-2.881
				C267.44,33.765,267.454,33.88,267.454,33.996z"/>
			<path fill="#A3A2A2" d="M223.915,33.71c0-0.033,0.008-0.068,0.021-0.102v1.896c-0.021-0.055-0.041-0.115-0.055-0.17v-1.358
				c0.02-0.089,0.033-0.17,0.033-0.259C223.915,33.717,223.915,33.717,223.915,33.71z"/>
			<path fill="#A3A2A2" d="M267.454,33.996v2.493c-0.008,0.015-0.014,0.027-0.027,0.048v-2.881
				C267.44,33.765,267.454,33.88,267.454,33.996z"/>
		</g>
		<path fill="#A3A2A2" d="M277.292,32.847c0.008,2.704-2.193,4.9-4.91,4.907c-0.01,0-0.01,0-0.016,0
			c-1.908,0-3.568-1.095-4.375-2.685c-0.123,0.495-0.307,0.973-0.537,1.414v-2.487c0-0.116-0.014-0.231-0.027-0.34v2.881
			c0.014-0.021,0.02-0.033,0.027-0.048l0.014,9.113c0.006,1.848-2.658,3.351-5.932,3.357L229.843,49
			c-3.283,0-5.947-1.495-5.947-3.344l-0.014-10.322c0.014,0.055,0.033,0.115,0.055,0.17v-2.188c0,0.129-0.008,0.265-0.021,0.394
			c0,0.007,0,0.007,0,0.007c0,0.089-0.012,0.17-0.033,0.259c-0.02,0.244-0.074,0.49-0.148,0.721
			c-0.592,2.032-2.481,3.514-4.71,3.514c-0.007,0-0.007,0-0.014,0c-2.712,0-4.906-2.195-4.913-4.894l-0.021-19.978
			c-0.007-2.705,2.194-4.9,4.913-4.9c0.008,0,0.008,0,0.014,0c2.107,0,3.901,1.318,4.594,3.18v-0.062c0-3.5,2.711-6.34,6.068-6.347
			l32.408-0.034c3.016-0.007,5.523,2.284,5.998,5.287c0.844-1.481,2.441-2.487,4.275-2.487c1.352,0,2.59,0.544,3.479,1.434
			c0.893,0.883,1.441,2.106,1.441,3.458L277.292,32.847z"/>
	</g>
	<g>
		<g>
			<path fill="#AB1B28" d="M265.673,32.902c0.004,3.112-2.412,5.637-5.396,5.641l-28.83,0.039c-2.984,0.003-5.406-2.518-5.41-5.629
				l-0.025-19.541c-0.004-3.115,2.412-5.638,5.398-5.642l28.826-0.036c2.984-0.003,5.408,2.516,5.412,5.629L265.673,32.902z"/>
			<path fill="#DD2C42" d="M223.161,30.271c0.002,2.112-1.716,3.83-3.836,3.833l0,0c-2.123,0.002-3.846-1.709-3.848-3.822
				l-0.02-15.598c-0.003-2.113,1.715-3.828,3.838-3.831l0,0c2.123-0.002,3.844,1.708,3.846,3.823L223.161,30.271z"/>
			<path fill="#DD2C42" d="M265.036,43.7c0.002,1.644-2.363,2.979-5.281,2.983l-28.189,0.033c-2.92,0.006-5.289-1.323-5.289-2.969
				l-0.014-10.322c-0.002-1.644,2.361-2.98,5.281-2.986l28.191-0.033c2.918-0.005,5.285,1.328,5.289,2.971L265.036,43.7z"/>
		</g>
		<path fill="#BE1E2D" d="M265.001,40.296c0,1.296-2.363,2.344-5.277,2.344h-28.135c-2.914,0-5.275-1.048-5.275-2.344v-8.132
			c0-1.295,2.361-2.345,5.275-2.345h28.135c2.916,0,5.277,1.05,5.277,2.345V40.296L265.001,40.296z"/>
	</g>
	<path fill="#DD2C42" d="M275.935,29.591c0.002,2.112-1.715,3.83-3.836,3.833l0,0c-2.125,0.003-3.846-1.709-3.848-3.822
		l-0.02-15.598c-0.004-2.113,1.715-3.828,3.838-3.831l0,0c2.121-0.003,3.844,1.708,3.846,3.823L275.935,29.591z"/>
</g>
<g>
	<g>
		<g>
			<path fill="#67686B" d="M131.251,33.47c0.004,3.498-2.713,6.337-6.067,6.341l-32.407,0.042c-3.356,0.004-6.08-2.829-6.084-6.328
				L86.665,11.56c-0.004-3.5,2.713-6.338,6.069-6.342l32.407-0.041c3.355-0.004,6.079,2.828,6.083,6.328L131.251,33.47z"/>
			<path fill="#717476" d="M87.004,33.307c0.003,2.706-2.197,4.904-4.914,4.907l0,0c-2.718,0.004-4.923-2.188-4.927-4.896
				L77.14,13.345c-0.003-2.707,2.197-4.903,4.915-4.906l0,0c2.717-0.004,4.922,2.188,4.926,4.894L87.004,33.307z"/>
			<path fill="#717476" d="M140.361,32.849c0.003,2.707-2.197,4.904-4.914,4.908l0,0c-2.717,0.003-4.923-2.189-4.926-4.895
				l-0.024-19.977c-0.002-2.707,2.197-4.902,4.914-4.906l0,0c2.718-0.003,4.923,2.187,4.926,4.894L140.361,32.849z"/>
			<path fill="#838484" d="M130.537,45.606c0.002,1.85-2.657,3.349-5.938,3.354l-31.69,0.039c-3.282,0.005-5.944-1.489-5.946-3.338
				l-0.015-11.605c-0.002-1.847,2.656-3.35,5.938-3.354l31.691-0.039c3.282-0.004,5.943,1.493,5.946,3.34L130.537,45.606z"/>
		</g>
		<path fill="#6E6F73" d="M130.497,41.78c0,1.458-2.656,2.636-5.932,2.636H92.936c-3.276,0-5.932-1.178-5.932-2.636V32.64
			c0-1.456,2.655-2.637,5.932-2.637h31.629c3.277,0,5.931,1.182,5.931,2.637V41.78L130.497,41.78z"/>
	</g>
</g>
<g>
	<g>
		<g>
			<path fill="#AB1B28" d="M409.862,33.469c0.004,3.499-2.713,6.338-6.068,6.342l-32.408,0.042c-3.355,0.004-6.08-2.829-6.084-6.328
				l-0.025-21.965c-0.004-3.5,2.713-6.338,6.068-6.342l32.406-0.04c3.355-0.004,6.078,2.828,6.082,6.328L409.862,33.469z"/>
			<path fill="#DD2C42" d="M365.616,33.306c0.002,2.706-2.199,4.905-4.914,4.908l0,0c-2.719,0.004-4.924-2.188-4.926-4.896
				l-0.025-19.974c-0.004-2.707,2.195-4.903,4.914-4.906l0,0c2.717-0.004,4.922,2.188,4.928,4.895L365.616,33.306z"/>
			<path fill="#DD2C42" d="M418.974,32.849c0.002,2.707-2.197,4.904-4.916,4.908l0,0c-2.715,0.003-4.92-2.189-4.924-4.895
				l-0.025-19.977c-0.004-2.707,2.197-4.903,4.914-4.906l0,0c2.717-0.003,4.922,2.188,4.926,4.894L418.974,32.849z"/>
			<path fill="#DD2C42" d="M409.147,45.606c0.002,1.849-2.656,3.349-5.938,3.355L371.521,49c-3.281,0.004-5.945-1.489-5.945-3.339
				l-0.016-11.604c-0.002-1.848,2.656-3.35,5.938-3.355l31.691-0.039c3.281-0.004,5.943,1.493,5.945,3.339L409.147,45.606z"/>
		</g>
		<path fill="#BE1E2D" d="M409.108,41.78c0,1.457-2.656,2.636-5.932,2.636h-31.629c-3.275,0-5.932-1.179-5.932-2.636V32.64
			c0-1.456,2.656-2.637,5.932-2.637h31.629c3.275,0,5.932,1.181,5.932,2.637V41.78L409.108,41.78z"/>
	</g>
</g>
<g>
	<path fill="#FFFFFF" d="M165.448,22.183h2.858c1.669,0,2.679,0.989,2.679,2.419v0.02c0,1.619-1.259,2.459-2.829,2.459h-1.169v2.099
		h-1.54V22.183z M168.207,25.711c0.77,0,1.219-0.46,1.219-1.06v-0.021c0-0.689-0.48-1.059-1.25-1.059h-1.189v2.139H168.207z"/>
	<path fill="#FFFFFF" d="M171.659,26.53V26.51c0-1.528,1.089-2.788,2.648-2.788c1.789,0,2.608,1.39,2.608,2.908
		c0,0.12-0.01,0.26-0.02,0.4h-3.728c0.15,0.689,0.63,1.049,1.31,1.049c0.51,0,0.879-0.16,1.299-0.55l0.87,0.77
		c-0.5,0.62-1.22,1-2.189,1C172.848,29.299,171.659,28.169,171.659,26.53z M175.437,26.08c-0.09-0.68-0.49-1.139-1.129-1.139
		c-0.63,0-1.04,0.449-1.159,1.139H175.437z"/>
	<path fill="#FFFFFF" d="M178.048,23.821h1.519v0.76c0.35-0.449,0.8-0.859,1.569-0.859c1.149,0,1.819,0.76,1.819,1.989v3.468h-1.519
		V26.19c0-0.72-0.34-1.09-0.919-1.09c-0.58,0-0.95,0.37-0.95,1.09v2.988h-1.519V23.821z"/>
	<path fill="#FFFFFF" d="M184.039,26.51v-0.02c0-1.789,1.169-2.769,2.438-2.769c0.81,0,1.309,0.37,1.669,0.8v-2.639h1.52v7.296
		h-1.52v-0.77c-0.37,0.5-0.879,0.869-1.669,0.869C185.228,29.278,184.039,28.299,184.039,26.51z M188.166,26.51v-0.02
		c0-0.89-0.589-1.479-1.299-1.479c-0.709,0-1.309,0.58-1.309,1.479v0.02c0,0.89,0.6,1.479,1.309,1.479
		C187.577,27.989,188.166,27.399,188.166,26.51z"/>
	<path fill="#FFFFFF" d="M191.058,21.883h1.599v1.35h-1.599V21.883z M191.098,23.821h1.519v5.357h-1.519V23.821z"/>
	<path fill="#FFFFFF" d="M194.048,23.821h1.519v0.76c0.35-0.449,0.8-0.859,1.569-0.859c1.149,0,1.819,0.76,1.819,1.989v3.468h-1.519
		V26.19c0-0.72-0.34-1.09-0.919-1.09c-0.58,0-0.95,0.37-0.95,1.09v2.988h-1.519V23.821z"/>
	<path fill="#FFFFFF" d="M200.308,30.238l0.52-1.14c0.549,0.31,1.099,0.49,1.809,0.49c1.039,0,1.529-0.5,1.529-1.46v-0.26
		c-0.45,0.54-0.939,0.87-1.749,0.87c-1.249,0-2.378-0.91-2.378-2.499v-0.02c0-1.6,1.149-2.499,2.378-2.499
		c0.83,0,1.319,0.35,1.729,0.8v-0.7h1.52v4.148c0,0.959-0.23,1.659-0.68,2.108c-0.5,0.5-1.27,0.72-2.309,0.72
		C201.808,30.798,200.988,30.598,200.308,30.238z M204.166,26.24v-0.02c0-0.729-0.57-1.239-1.309-1.239
		c-0.74,0-1.299,0.51-1.299,1.239v0.02c0,0.739,0.56,1.239,1.299,1.239C203.596,27.479,204.166,26.97,204.166,26.24z"/>
</g>
<g>
	<path fill="#FFFFFF" d="M304.918,21.906h1.419l2.999,7.046h-1.609l-0.64-1.569h-2.958l-0.641,1.569h-1.568L304.918,21.906z
		 M306.537,26.023l-0.93-2.269l-0.93,2.269H306.537z"/>
	<path fill="#FFFFFF" d="M309.08,23.595h1.609l1.199,3.589l1.209-3.589h1.578l-2.107,5.397h-1.38L309.08,23.595z"/>
	<path fill="#FFFFFF" d="M314.988,27.413v-0.021c0-1.169,0.891-1.709,2.16-1.709c0.539,0,0.93,0.09,1.309,0.221v-0.091
		c0-0.629-0.389-0.979-1.148-0.979c-0.58,0-0.99,0.11-1.48,0.29l-0.379-1.159c0.59-0.26,1.17-0.43,2.078-0.43
		c0.83,0,1.43,0.22,1.809,0.6c0.4,0.399,0.58,0.989,0.58,1.709v3.108h-1.469v-0.58c-0.369,0.41-0.879,0.68-1.619,0.68
		C315.818,29.052,314.988,28.473,314.988,27.413z M318.477,27.063v-0.271c-0.26-0.119-0.6-0.199-0.969-0.199
		c-0.65,0-1.049,0.26-1.049,0.739v0.021c0,0.409,0.34,0.649,0.828,0.649C317.998,28.003,318.477,27.613,318.477,27.063z"/>
	<path fill="#FFFFFF" d="M321.26,21.656h1.598v1.35h-1.598V21.656z M321.299,23.595h1.52v5.357h-1.52V23.595z"/>
	<path fill="#FFFFFF" d="M324.318,21.656h1.52v7.296h-1.52V21.656z"/>
	<path fill="#FFFFFF" d="M326.947,27.413v-0.021c0-1.169,0.891-1.709,2.16-1.709c0.539,0,0.93,0.09,1.309,0.221v-0.091
		c0-0.629-0.389-0.979-1.148-0.979c-0.58,0-0.99,0.11-1.48,0.29l-0.379-1.159c0.59-0.26,1.17-0.43,2.078-0.43
		c0.83,0,1.43,0.22,1.809,0.6c0.4,0.399,0.58,0.989,0.58,1.709v3.108h-1.469v-0.58c-0.369,0.41-0.879,0.68-1.619,0.68
		C327.777,29.052,326.947,28.473,326.947,27.413z M330.436,27.063v-0.271c-0.26-0.119-0.6-0.199-0.969-0.199
		c-0.65,0-1.049,0.26-1.049,0.739v0.021c0,0.409,0.34,0.649,0.828,0.649C329.957,28.003,330.436,27.613,330.436,27.063z"/>
	<path fill="#FFFFFF" d="M334.707,28.253v0.699h-1.52v-7.296h1.52v2.708c0.369-0.499,0.879-0.869,1.67-0.869
		c1.248,0,2.438,0.979,2.438,2.769v0.02c0,1.789-1.17,2.769-2.438,2.769C335.566,29.052,335.066,28.683,334.707,28.253z
		 M337.295,26.283v-0.02c0-0.89-0.6-1.479-1.309-1.479s-1.299,0.59-1.299,1.479v0.02c0,0.89,0.59,1.479,1.299,1.479
		S337.295,27.184,337.295,26.283z"/>
	<path fill="#FFFFFF" d="M340.008,21.656h1.52v7.296h-1.52V21.656z"/>
	<path fill="#FFFFFF" d="M342.697,26.304v-0.021c0-1.528,1.09-2.788,2.648-2.788c1.789,0,2.609,1.39,2.609,2.908
		c0,0.12-0.01,0.26-0.02,0.4h-3.729c0.15,0.689,0.629,1.049,1.309,1.049c0.51,0,0.881-0.16,1.299-0.55l0.871,0.77
		c-0.5,0.62-1.221,1-2.189,1C343.887,29.072,342.697,27.942,342.697,26.304z M346.475,25.854c-0.09-0.68-0.488-1.139-1.129-1.139
		c-0.629,0-1.039,0.449-1.158,1.139H346.475z"/>
</g>
<g>
	<path fill="#FFFFFF" d="M21.866,22.183h3.198c0.89,0,1.579,0.25,2.039,0.71c0.39,0.39,0.6,0.939,0.6,1.599v0.021
		c0,1.129-0.609,1.839-1.499,2.168l1.709,2.499h-1.799l-1.5-2.239h-1.209v2.239h-1.54V22.183z M24.964,25.581
		c0.75,0,1.179-0.4,1.179-0.99v-0.02c0-0.66-0.46-0.999-1.209-0.999h-1.529v2.009H24.964z"/>
	<path fill="#FFFFFF" d="M28.576,26.53V26.51c0-1.528,1.089-2.788,2.648-2.788c1.789,0,2.608,1.39,2.608,2.908
		c0,0.12-0.01,0.26-0.02,0.4h-3.728c0.15,0.689,0.63,1.049,1.31,1.049c0.51,0,0.879-0.16,1.299-0.55l0.87,0.77
		c-0.5,0.62-1.22,1-2.189,1C29.765,29.299,28.576,28.169,28.576,26.53z M32.354,26.08c-0.09-0.68-0.49-1.139-1.129-1.139
		c-0.63,0-1.04,0.449-1.159,1.139H32.354z"/>
	<path fill="#FFFFFF" d="M34.546,28.469l0.65-0.999c0.58,0.42,1.189,0.64,1.689,0.64c0.44,0,0.64-0.16,0.64-0.399v-0.021
		c0-0.33-0.52-0.439-1.109-0.619c-0.75-0.221-1.599-0.57-1.599-1.609V25.44c0-1.089,0.879-1.698,1.959-1.698
		c0.68,0,1.419,0.229,1.999,0.619l-0.58,1.05c-0.53-0.311-1.059-0.5-1.449-0.5c-0.37,0-0.56,0.16-0.56,0.37v0.02
		c0,0.3,0.51,0.439,1.089,0.64c0.75,0.25,1.619,0.609,1.619,1.589v0.021c0,1.189-0.89,1.729-2.049,1.729
		C36.095,29.278,35.255,29.028,34.546,28.469z"/>
	<path fill="#FFFFFF" d="M39.726,26.53V26.51c0-1.528,1.089-2.788,2.648-2.788c1.789,0,2.608,1.39,2.608,2.908
		c0,0.12-0.01,0.26-0.02,0.4h-3.728c0.15,0.689,0.63,1.049,1.31,1.049c0.51,0,0.879-0.16,1.299-0.55l0.87,0.77
		c-0.5,0.62-1.22,1-2.189,1C40.915,29.299,39.726,28.169,39.726,26.53z M43.504,26.08c-0.09-0.68-0.49-1.139-1.129-1.139
		c-0.63,0-1.04,0.449-1.159,1.139H43.504z"/>
	<path fill="#FFFFFF" d="M46.116,23.821h1.519v1.08c0.31-0.74,0.81-1.22,1.709-1.18v1.589h-0.08c-1.01,0-1.629,0.61-1.629,1.89
		v1.979h-1.519V23.821z"/>
	<path fill="#FFFFFF" d="M49.816,23.821h1.609l1.199,3.589l1.209-3.589h1.579l-2.109,5.397h-1.379L49.816,23.821z"/>
	<path fill="#FFFFFF" d="M55.736,26.53V26.51c0-1.528,1.089-2.788,2.648-2.788c1.789,0,2.608,1.39,2.608,2.908
		c0,0.12-0.01,0.26-0.02,0.4h-3.728c0.15,0.689,0.63,1.049,1.31,1.049c0.51,0,0.879-0.16,1.299-0.55l0.87,0.77
		c-0.5,0.62-1.22,1-2.189,1C56.925,29.299,55.736,28.169,55.736,26.53z M59.514,26.08c-0.09-0.68-0.49-1.139-1.129-1.139
		c-0.63,0-1.04,0.449-1.159,1.139H59.514z"/>
	<path fill="#FFFFFF" d="M61.886,26.51v-0.02c0-1.789,1.169-2.769,2.438-2.769c0.81,0,1.309,0.37,1.669,0.8v-2.639h1.52v7.296h-1.52
		v-0.77c-0.37,0.5-0.879,0.869-1.669,0.869C63.075,29.278,61.886,28.299,61.886,26.51z M66.014,26.51v-0.02
		c0-0.89-0.589-1.479-1.299-1.479c-0.709,0-1.309,0.58-1.309,1.479v0.02c0,0.89,0.6,1.479,1.309,1.479
		C65.424,27.989,66.014,27.399,66.014,26.51z"/>
</g>
</svg>
