<?xml version="1.0" encoding="utf-8"?>
<!-- Generator: Adobe Illustrator 16.0.0, SVG Export Plug-In . SVG Version: 6.00 Build 0)  -->
<!DOCTYPE svg PUBLIC "-//W3C//DTD SVG 1.1//EN" "http://www.w3.org/Graphics/SVG/1.1/DTD/svg11.dtd">
<svg version="1.1" id="Layer_1" xmlns="http://www.w3.org/2000/svg" xmlns:xlink="http://www.w3.org/1999/xlink" x="0px" y="0px"
	 width="420px" height="420px" viewBox="0 0 420 420" enable-background="new 0 0 420 420" xml:space="preserve">
<g>
	<path fill="#BE1E2D" d="M352.951,252.276c0,21.653-16.767,39.192-37.445,39.192H115.805c-20.682,0-37.448-17.539-37.448-39.192
		V116.388c0-21.65,16.766-39.192,37.448-39.192h199.701c20.679,0,37.445,17.542,37.445,39.192V252.276z"/>
	<path fill="#DD2C42" d="M80.285,250.944c0,16.748-13.577,30.32-30.322,30.32l0,0c-16.746,0-30.322-13.572-30.322-30.32V127.363
		c0-16.748,13.577-30.321,30.322-30.321l0,0c16.746,0,30.322,13.573,30.322,30.321V250.944z"/>
	<path fill="#DD2C42" d="M413.591,253.015c0,16.748-13.572,30.32-30.318,30.32l0,0c-16.745,0-30.321-13.572-30.321-30.32V129.432
		c0-16.748,13.576-30.32,30.321-30.32l0,0c16.746,0,30.318,13.573,30.318,30.32V253.015z"/>
	<path fill="#DD2C42" d="M352.951,327.363c0,11.435-16.396,20.704-36.62,20.704H121.043c-20.226,0-36.62-9.27-36.62-20.704v-71.794
		c0-11.436,16.394-20.703,36.62-20.703h195.288c20.225,0,36.62,9.268,36.62,20.703V327.363z"/>
	<path fill="#BE1E2D" d="M302.561,304.604c23.288,0,42.168,9.274,42.168,20.721l0,0c0,11.443-18.88,20.721-42.168,20.721H130.683
		c-23.293,0-42.168-9.277-42.168-20.721l0,0c0-11.446,18.875-20.721,42.168-20.721H302.561z"/>
</g>
</svg>
