<?xml version="1.0" encoding="utf-8"?>
<!-- Generator: Adobe Illustrator 16.0.0, SVG Export Plug-In . SVG Version: 6.00 Build 0)  -->
<!DOCTYPE svg PUBLIC "-//W3C//DTD SVG 1.1//EN" "http://www.w3.org/Graphics/SVG/1.1/DTD/svg11.dtd">
<svg version="1.1" id="Layer_2" xmlns="http://www.w3.org/2000/svg" xmlns:xlink="http://www.w3.org/1999/xlink" x="0px" y="0px"
	 width="100px" height="100px" viewBox="0 0 100 100" enable-background="new 0 0 100 100" xml:space="preserve">
<g>
	<path fill="#6D6E71" d="M79.889,58.529c0,4.812-3.726,8.71-8.321,8.71h-44.38c-4.596,0-8.322-3.898-8.322-8.71V28.331
		c0-4.812,3.726-8.709,8.322-8.709h44.38c4.595,0,8.321,3.898,8.321,8.709V58.529z"/>
	<path fill="#808285" d="M19.294,58.233c0,3.722-3.017,6.738-6.738,6.738l0,0c-3.722,0-6.738-3.016-6.738-6.738V30.77
		c0-3.722,3.017-6.738,6.738-6.738l0,0c3.721,0,6.738,3.016,6.738,6.738V58.233z"/>
	<path fill="#808285" d="M92.365,57.693c0,3.722-3.016,6.738-6.737,6.738l0,0c-3.722,0-6.739-3.016-6.739-6.738V30.229
		c0-3.722,3.017-6.738,6.739-6.738l0,0c3.721,0,6.737,3.016,6.737,6.738V57.693z"/>
	<path fill="#808285" d="M78.889,75.215c0,2.542-3.644,4.602-8.138,4.602H27.353c-4.495,0-8.138-2.06-8.138-4.602V59.261
		c0-2.541,3.643-4.601,8.138-4.601h43.398c4.495,0,8.138,2.06,8.138,4.601V75.215z"/>
	<path fill="#6D6E71" d="M67.691,70.158c5.176,0,9.372,2.061,9.372,4.605l0,0c0,2.542-4.196,4.604-9.372,4.604H29.495
		c-5.177,0-9.372-2.062-9.372-4.604l0,0c0-2.544,4.195-4.605,9.372-4.605H67.691z"/>
</g>
</svg>
