<?xml version="1.0" encoding="utf-8"?>
<!-- Generator: Adobe Illustrator 16.0.0, SVG Export Plug-In . SVG Version: 6.00 Build 0)  -->
<!DOCTYPE svg PUBLIC "-//W3C//DTD SVG 1.1//EN" "http://www.w3.org/Graphics/SVG/1.1/DTD/svg11.dtd">
<svg version="1.1" id="Layer_2" xmlns="http://www.w3.org/2000/svg" xmlns:xlink="http://www.w3.org/1999/xlink" x="0px" y="0px"
	 width="93px" height="64px" viewBox="0 0 93 64" enable-background="new 0 0 93 64" xml:space="preserve">
<g>
	<g>
		<path fill="#67686B" d="M79.605,41.391c0.006,5.147-3.992,9.326-8.928,9.332l-47.691,0.06c-4.939,0.006-8.947-4.163-8.953-9.311
			l-0.04-32.324c-0.006-5.151,3.992-9.327,8.931-9.333l47.69-0.059c4.937-0.006,8.945,4.161,8.951,9.311L79.605,41.391z"/>
		<path fill="#717476" d="M14.492,41.15c0.005,3.984-3.233,7.218-7.231,7.223l0,0c-4,0.005-7.245-3.22-7.25-7.204l-0.036-29.394
			C-0.03,7.792,3.208,4.56,7.208,4.555l0,0c3.998-0.005,7.244,3.219,7.249,7.203L14.492,41.15z"/>
		<path fill="#717476" d="M93.011,40.478c0.005,3.982-3.232,7.216-7.231,7.221l0,0c-3.998,0.005-7.244-3.22-7.249-7.202
			l-0.036-29.397c-0.005-3.984,3.233-7.215,7.231-7.22l0,0c3.999-0.005,7.244,3.219,7.249,7.202L93.011,40.478z"/>
		<path fill="#838484" d="M78.553,59.251c0.004,2.722-3.909,4.929-8.737,4.936l-46.635,0.057c-4.83,0.007-8.748-2.191-8.751-4.913
			l-0.021-17.077c-0.003-2.719,3.909-4.93,8.739-4.937l46.635-0.057c4.83-0.007,8.746,2.196,8.75,4.914L78.553,59.251z"/>
	</g>
	<path fill="#6E6F73" d="M78.494,53.621c0,2.145-3.908,3.879-8.729,3.879H23.221c-4.821,0-8.729-1.734-8.729-3.879V40.169
		c0-2.142,3.908-3.879,8.729-3.879h46.545c4.822,0,8.729,1.738,8.729,3.879V53.621z"/>
</g>
</svg>
