<?xml version="1.0" encoding="utf-8"?>
<!-- Generator: Adobe Illustrator 16.0.0, SVG Export Plug-In . SVG Version: 6.00 Build 0)  -->
<!DOCTYPE svg PUBLIC "-//W3C//DTD SVG 1.1//EN" "http://www.w3.org/Graphics/SVG/1.1/DTD/svg11.dtd">
<svg version="1.1" id="Layer_1" xmlns="http://www.w3.org/2000/svg" xmlns:xlink="http://www.w3.org/1999/xlink" x="0px" y="0px"
	 width="93px" height="64px" viewBox="0 0 93 64" enable-background="new 0 0 93 64" xml:space="preserve">
<g>
	<g>
		<path fill="#A3A2A2" d="M14.446,41.5c0.02-0.19,0.03-0.39,0.03-0.58v3.22c-0.03-0.08-0.06-0.17-0.08-0.25
			c-0.09-0.31-0.17-0.619-0.22-0.939c0.11-0.34,0.19-0.7,0.22-1.061c0.03-0.13,0.05-0.25,0.05-0.38
			C14.446,41.51,14.446,41.51,14.446,41.5z"/>
		<path fill="#A3A2A2" d="M78.516,41.92v3.67c-0.01,0.021-0.02,0.04-0.039,0.07v-4.24C78.496,41.58,78.516,41.75,78.516,41.92z"/>
		<path fill="#A3A2A2" d="M14.446,41.5c0-0.05,0.01-0.101,0.03-0.149v2.789c-0.03-0.08-0.06-0.17-0.08-0.25v-2
			c0.03-0.13,0.05-0.25,0.05-0.38C14.446,41.51,14.446,41.51,14.446,41.5z"/>
		<path fill="#A3A2A2" d="M78.516,41.92v3.67c-0.01,0.021-0.02,0.04-0.039,0.07v-4.24C78.496,41.58,78.516,41.75,78.516,41.92z"/>
	</g>
	<path fill="#A3A2A2" d="M92.996,40.229c0.01,3.98-3.23,7.211-7.23,7.221c-0.01,0-0.01,0-0.02,0c-2.81,0-5.25-1.61-6.439-3.95
		c-0.18,0.729-0.45,1.431-0.791,2.08v-3.66c0-0.17-0.02-0.34-0.039-0.5v4.24c0.02-0.03,0.029-0.05,0.039-0.07L78.536,59
		c0.011,2.72-3.909,4.931-8.729,4.94L23.167,64c-4.83,0-8.75-2.2-8.75-4.92l-0.02-15.19c0.02,0.08,0.05,0.17,0.08,0.25v-3.22
		c0,0.19-0.01,0.39-0.03,0.58c0,0.01,0,0.01,0,0.01c0,0.13-0.02,0.25-0.05,0.38c-0.03,0.36-0.11,0.721-0.22,1.061
		c-0.87,2.99-3.65,5.17-6.93,5.17c-0.01,0-0.01,0-0.02,0c-3.99,0-7.22-3.23-7.23-7.2l-0.03-29.4c-0.01-3.98,3.23-7.21,7.23-7.21
		c0.01,0,0.01,0,0.02,0c3.1,0,5.74,1.94,6.76,4.68V8.9c0-5.15,3.99-9.33,8.93-9.34l47.689-0.05c4.44-0.01,8.131,3.36,8.83,7.78
		c1.24-2.18,3.59-3.66,6.291-3.66c1.99,0,3.81,0.8,5.119,2.11c1.311,1.3,2.121,3.1,2.121,5.09L92.996,40.229z"/>
</g>
<g>
	<g>
		<path fill="#AB1B28" d="M75.895,40.312c0.006,4.579-3.55,8.294-7.941,8.3l-42.425,0.057c-4.393,0.005-7.958-3.705-7.964-8.283
			L17.529,11.63c-0.005-4.583,3.551-8.297,7.944-8.302l42.42-0.053c4.393-0.005,7.959,3.702,7.964,8.284L75.895,40.312z"/>
		<path fill="#DD2C42" d="M13.336,36.438c0.004,3.109-2.524,5.636-5.646,5.641l0,0c-3.124,0.003-5.658-2.516-5.661-5.626L2,13.5
			c-0.004-3.11,2.524-5.634,5.648-5.638l0,0c3.122-0.004,5.656,2.514,5.66,5.625L13.336,36.438z"/>
		<path fill="#DD2C42" d="M74.958,56.2c0.003,2.42-3.476,4.384-7.771,4.391l-41.484,0.05c-4.297,0.008-7.782-1.948-7.784-4.37
			l-0.019-15.19c-0.002-2.419,3.477-4.386,7.773-4.394l41.484-0.049c4.296-0.008,7.78,1.954,7.783,4.371L74.958,56.2z"/>
	</g>
	<path fill="#BE1E2D" d="M74.906,51.191c0,1.907-3.477,3.45-7.765,3.45H25.738c-4.289,0-7.765-1.543-7.765-3.45V39.225
		c0-1.906,3.476-3.451,7.765-3.451h41.403c4.289,0,7.765,1.545,7.765,3.451V51.191L74.906,51.191z"/>
</g>
<path fill="#DD2C42" d="M90.996,35.438c0.004,3.109-2.525,5.636-5.646,5.641l0,0c-3.125,0.003-5.658-2.516-5.662-5.626L79.66,12.5
	c-0.004-3.11,2.523-5.634,5.648-5.638l0,0c3.121-0.004,5.656,2.514,5.66,5.625L90.996,35.438z"/>
</svg>
