<?xml version="1.0" encoding="utf-8"?>
<!-- Generator: Adobe Illustrator 16.0.0, SVG Export Plug-In . SVG Version: 6.00 Build 0)  -->
<!DOCTYPE svg PUBLIC "-//W3C//DTD SVG 1.1//EN" "http://www.w3.org/Graphics/SVG/1.1/DTD/svg11.dtd">
<svg version="1.1" id="Layer_1" xmlns="http://www.w3.org/2000/svg" xmlns:xlink="http://www.w3.org/1999/xlink" x="0px" y="0px"
	 width="93px" height="64px" viewBox="163.276 176.238 93 64" enable-background="new 163.276 176.238 93 64" xml:space="preserve">
<g>
	<path fill="#BE1E2D" d="M242.011,217.611c0,5.12-3.966,9.267-8.854,9.267h-47.216c-4.89,0-8.854-4.146-8.854-9.267v-32.128
		c0-5.12,3.964-9.267,8.854-9.267h47.216c4.888,0,8.854,4.147,8.854,9.267V217.611z"/>
	<path fill="#DD2C42" d="M177.543,217.296c0,3.961-3.21,7.17-7.169,7.17l0,0c-3.96,0-7.169-3.209-7.169-7.17v-29.218
		c0-3.959,3.21-7.169,7.169-7.169l0,0c3.959,0,7.169,3.21,7.169,7.169V217.296z"/>
	<path fill="#DD2C42" d="M256.348,217.786c0,3.96-3.209,7.169-7.168,7.169l0,0c-3.959,0-7.169-3.209-7.169-7.169v-29.219
		c0-3.96,3.21-7.169,7.169-7.169l0,0c3.959,0,7.168,3.21,7.168,7.169V217.786z"/>
	<path fill="#DD2C42" d="M242.011,235.365c0,2.703-3.878,4.895-8.659,4.895h-46.173c-4.782,0-8.658-2.191-8.658-4.895v-16.975
		c0-2.705,3.876-4.896,8.658-4.896h46.173c4.781,0,8.659,2.191,8.659,4.896V235.365z"/>
	<path fill="#BE1E2D" d="M230.097,229.983c5.506,0,9.97,2.192,9.97,4.899l0,0c0,2.705-4.464,4.899-9.97,4.899h-40.639
		c-5.507,0-9.97-2.194-9.97-4.899l0,0c0-2.706,4.463-4.899,9.97-4.899H230.097z"/>
</g>
</svg>
