<?xml version="1.0" encoding="utf-8"?>
<!-- Generator: Adobe Illustrator 16.0.0, SVG Export Plug-In . SVG Version: 6.00 Build 0)  -->
<!DOCTYPE svg PUBLIC "-//W3C//DTD SVG 1.1//EN" "http://www.w3.org/Graphics/SVG/1.1/DTD/svg11.dtd">
<svg version="1.1" id="Layer_2" xmlns="http://www.w3.org/2000/svg" xmlns:xlink="http://www.w3.org/1999/xlink" x="0px" y="0px"
	 width="93px" height="64px" viewBox="3.5 18 93 64" enable-background="new 3.5 18 93 64" xml:space="preserve">
<g>
	<path fill="#6D6E71" d="M83.094,59.646c0,5.148-4.004,9.322-8.94,9.322h-47.69c-4.939,0-8.942-4.174-8.942-9.322V27.322
		c0-5.151,4.003-9.322,8.942-9.322h47.69c4.937,0,8.94,4.172,8.94,9.322V59.646z"/>
	<path fill="#808285" d="M17.981,59.326c0,3.985-3.242,7.213-7.24,7.213l0,0c-4,0-7.241-3.228-7.241-7.213V29.933
		c0-3.984,3.242-7.212,7.241-7.212l0,0c3.998,0,7.24,3.228,7.24,7.212V59.326z"/>
	<path fill="#808285" d="M96.5,58.75c0,3.983-3.241,7.212-7.24,7.212l0,0c-3.999,0-7.241-3.229-7.241-7.212V29.353
		c0-3.984,3.242-7.211,7.241-7.211l0,0c3.999,0,7.24,3.228,7.24,7.211V58.75z"/>
	<path fill="#808285" d="M82.019,77.505c0,2.721-3.915,4.925-8.744,4.925H26.641c-4.83,0-8.745-2.204-8.745-4.925V60.428
		c0-2.719,3.915-4.925,8.745-4.925h46.634c4.831,0,8.744,2.207,8.744,4.925V77.505z"/>
	<path fill="#6D6E71" d="M69.986,72.091c5.562,0,10.069,2.207,10.069,4.932l0,0c0,2.72-4.508,4.927-10.069,4.927H28.943
		c-5.563,0-10.071-2.207-10.071-4.927l0,0c0-2.725,4.507-4.932,10.071-4.932H69.986z"/>
</g>
</svg>
